Coordinates
version=1
nRows=16
nColumns=40
inDegrees=yes

Units are S.I. units (second, meters, Newtons, ...)
If the header above contains a line with 'inDegrees', this indicates whether rotational values are in degrees (yes) or radians (no).

endheader
time	pelvis_tilt	pelvis_list	pelvis_rotation	pelvis_tx	pelvis_ty	pelvis_tz	hip_flexion_r	hip_adduction_r	hip_rotation_r	knee_angle_r	knee_angle_r_beta	ankle_angle_r	subtalar_angle_r	mtp_angle_r	hip_flexion_l	hip_adduction_l	hip_rotation_l	knee_angle_l	knee_angle_l_beta	ankle_angle_l	subtalar_angle_l	mtp_angle_l	lumbar_extension	lumbar_bending	lumbar_rotation	arm_flex_r	arm_add_r	arm_rot_r	elbow_flex_r	pro_sup_r	wrist_flex_r	wrist_dev_r	arm_flex_l	arm_add_l	arm_rot_l	elbow_flex_l	pro_sup_l	wrist_flex_l	wrist_dev_l
      9.97500000	     88.57927212	     63.84201345	     89.07714673	      0.37834823	      0.61730341	      0.82868438	     55.29072348	     -9.83322516	     -7.13581529	     25.34846446	      0.44241417	     -2.94121802	      0.00000000	      0.00000000	     50.69099967	    -15.34172389	    -14.43938268	     19.29617164	      0.33678173	     -5.28172175	      0.00000000	      0.00000000	    -22.04948148	     -8.58903489	      4.73548652	     35.73192562	     -1.18940523	      2.39538442	     10.70088794	     36.84624314	      0.00000000	      0.00000000	     36.38171700	     -2.04106302	    -15.55542238	     15.94057890	     35.17935061	      0.00000000	      0.00000000
      9.98000000	     88.67847737	     63.62439031	     89.09403172	      0.37932813	      0.61721387	      0.82813743	     55.55414046	     -9.89424615	     -7.28312252	     25.31387373	      0.44181044	     -3.02917174	      0.00000000	      0.00000000	     50.98180732	    -15.26461099	    -14.21684710	     19.16852332	      0.33455384	     -5.41949528	      0.00000000	      0.00000000	    -22.13443387	     -8.54182726	      4.75315168	     35.03539169	     -1.53813880	      2.33749225	     12.27005330	     37.63213721	      0.00000000	      0.00000000	     36.31734388	     -2.18710884	    -13.86644890	     16.23448440	     36.12973522	      0.00000000	      0.00000000
      9.98500000	     88.54340665	     63.44800543	     89.06013289	      0.38025516	      0.61758976	      0.82755643	     55.88385153	     -9.80162134	     -7.13934959	     25.38644988	      0.44307714	     -3.13905729	      0.00000000	      0.00000000	     51.26990916	    -15.41550603	    -14.49909994	     19.34349775	      0.33760772	     -5.47438826	      0.00000000	      0.00000000	    -22.20021617	     -8.70472802	      4.78027658	     36.27030432	     -1.19398050	      2.37033459	     10.51017611	     37.76695360	      0.00000000	      0.00000000	     36.21125987	     -2.46821641	    -12.68627305	     16.64005559	     36.50718073	      0.00000000	      0.00000000
      9.99000000	     88.54870288	     63.10121589	     89.03782009	      0.38128523	      0.61774038	      0.82665974	     56.37307844	     -9.78326316	     -7.12140156	     25.47924048	      0.44469664	     -3.08767595	      0.00000000	      0.00000000	     51.76595273	    -15.46362504	    -14.46200474	     19.44051217	      0.33930095	     -5.52479510	      0.00000000	      0.00000000	    -22.10214982	     -8.73557106	      4.67615667	     36.39018126	     -1.09464702	      2.17829445	     10.77374390	     36.71256401	      0.00000000	      0.00000000	     36.83907616	     -2.29480803	    -14.61189631	     16.11012099	     35.06516772	      0.00000000	      0.00000000
      9.99500000	     88.48713200	     63.05402234	     89.03837840	      0.38211795	      0.61792216	      0.82644101	     56.45818456	     -9.74010783	     -7.06535219	     25.37992756	      0.44296330	     -3.29275776	      0.00000000	      0.00000000	     51.83525212	    -15.50633641	    -14.58861613	     19.39052317	      0.33842847	     -5.62446787	      0.00000000	      0.00000000	    -22.36890814	     -8.83600321	      4.80416306	     36.67551965	     -1.19548042	      2.23354775	     10.65311727	     37.78674047	      0.00000000	      0.00000000	     36.49040055	     -2.69628587	    -11.53898629	     16.76495824	     36.58030716	      0.00000000	      0.00000000
     10.00000000	     88.49967240	     62.71856815	     89.02150168	      0.38316971	      0.61805221	      0.82559973	     56.91129365	     -9.72608634	     -7.05302676	     25.41714167	      0.44361281	     -3.40478524	      0.00000000	      0.00000000	     52.29466237	    -15.53106141	    -14.53013858	     19.42165018	      0.33897174	     -5.70933101	      0.00000000	      0.00000000	    -22.28353347	     -8.86427482	      4.79928123	     37.09359546	     -1.13937251	      2.21777054	     10.23544729	     38.29971349	      0.00000000	      0.00000000	     36.40919996	     -2.89857792	    -10.41339057	     17.12529928	     37.33341511	      0.00000000	      0.00000000
     10.00500000	     88.52225038	     62.45408449	     89.00591174	      0.38412310	      0.61810213	      0.82494042	     57.26896790	     -9.72185834	     -7.06857555	     25.42978900	      0.44383355	     -3.52124428	      0.00000000	      0.00000000	     52.66876501	    -15.54737999	    -14.48821681	     19.44195668	      0.33932616	     -5.82644579	      0.00000000	      0.00000000	    -22.30307446	     -8.84958800	      4.70002676	     37.16460972	     -1.12383114	      2.25348456	     10.68474214	     36.21534594	      0.00000000	      0.00000000	     37.71191766	     -2.19223223	    -14.98621197	     16.02122306	     34.39888422	      0.00000000	      0.00000000
     10.01000000	     88.51348134	     62.16768080	     89.00601106	      0.38510165	      0.61821420	      0.82418961	     57.66389776	     -9.71805334	     -7.03869787	     25.47057392	      0.44454538	     -3.60231502	      0.00000000	      0.00000000	     53.04912137	    -15.55768841	    -14.45228336	     19.44206443	      0.33932804	     -5.84448327	      0.00000000	      0.00000000	    -22.26506658	     -8.90743894	      4.71011895	     37.48020397	     -1.11364787	      2.29956435	     10.45058963	     37.08703948	      0.00000000	      0.00000000	     37.33367580	     -2.56253882	    -12.34956300	     16.74755894	     35.70028030	      0.00000000	      0.00000000
     10.01500000	     88.57228982	     62.04962346	     88.99745672	      0.38593555	      0.61823375	      0.82367366	     57.89032520	     -9.77423299	     -7.25294148	     25.57956722	      0.44644767	     -3.67172436	      0.00000000	      0.00000000	     53.33917218	    -15.58949022	    -14.47745643	     19.60225870	      0.34212396	     -5.91711811	      0.00000000	      0.00000000	    -22.42970749	     -8.92137477	      4.81423507	     36.33195259	     -1.59718221	      2.18596098	     12.82020492	     38.29949645	      0.00000000	      0.00000000	     37.41056328	     -3.01516529	     -9.12386453	     16.49024425	     37.10217942	      0.00000000	      0.00000000
     10.02000000	     88.52071325	     61.75767408	     88.95843539	      0.38682864	      0.61845820	      0.82306545	     58.22103615	     -9.66354659	     -7.07244833	     25.43409709	      0.44390874	     -3.83654008	      0.00000000	      0.00000000	     53.62284610	    -15.62010458	    -14.43743109	     19.44474560	      0.33937483	     -6.07665891	      0.00000000	      0.00000000	    -22.40939540	     -8.96752529	      4.63059728	     37.89476423	     -1.07192467	      2.32523195	     10.62840027	     36.55774807	      0.00000000	      0.00000000	     38.32627543	     -2.26473670	    -14.54553198	     16.15609325	     34.98950377	      0.00000000	      0.00000000
     10.02500000	     88.47423033	     61.51783119	     88.94124181	      0.38776138	      0.61863981	      0.82238412	     58.56545795	     -9.61803056	     -7.03326217	     25.45330582	      0.44424399	     -3.93214147	      0.00000000	      0.00000000	     53.93898856	    -15.66761319	    -14.46533720	     19.44815905	      0.33943441	     -6.16562770	      0.00000000	      0.00000000	    -22.41342459	     -9.05620326	      4.66656663	     38.23644702	     -1.03507481	      2.33927662	     10.35573370	     37.39412733	      0.00000000	      0.00000000	     37.93712974	     -2.69944988	    -11.76357141	     16.79061647	     36.18708911	      0.00000000	      0.00000000
     10.03000000	     88.48400624	     61.40938324	     88.89730008	      0.38860518	      0.61888737	      0.82198717	     58.78549083	     -9.61285020	     -7.18651093	     25.52394527	      0.44547688	     -4.05318201	      0.00000000	      0.00000000	     54.11933287	    -15.72039501	    -14.49859549	     19.45659284	      0.33958161	     -6.21317336	      0.00000000	      0.00000000	    -22.61329544	     -9.12509528	      4.81096901	     38.05173091	     -1.22941419	      2.32944213	     11.05724673	     37.91088376	      0.00000000	      0.00000000	     38.19035265	     -2.82760798	    -10.47392997	     16.71485105	     36.78509567	      0.00000000	      0.00000000
     10.03500000	     88.45225601	     61.04116862	     88.85193061	      0.38957228	      0.61910672	      0.82110188	     59.22778609	     -9.52618197	     -7.06815581	     25.46315243	      0.44441585	     -4.15127982	      0.00000000	      0.00000000	     54.57928767	    -15.78337155	    -14.46195152	     19.47671582	      0.33993282	     -6.29216909	      0.00000000	      0.00000000	    -22.48210794	     -9.19728215	      4.75934195	     38.70838795	     -1.07193122	      2.86737220	     10.25944722	     37.67263504	      0.00000000	      0.00000000	     38.44583590	     -2.71046258	    -11.74378802	     16.77528288	     36.52561008	      0.00000000	      0.00000000
     10.04000000	     88.45584108	     61.01081080	     88.80720430	      0.39039295	      0.61914075	      0.82081636	     59.31303463	     -9.49157958	     -7.08800988	     25.43604331	      0.44394270	     -4.28179261	      0.00000000	      0.00000000	     54.69380964	    -15.83702377	    -14.53836746	     19.53683003	      0.34098201	     -6.30531832	      0.00000000	      0.00000000	    -22.75101747	     -9.24692754	      4.87375495	     38.33562128	     -1.33850920	      2.80573287	     11.38342493	     38.31277450	      0.00000000	      0.00000000	     38.71787403	     -2.89421368	     -9.94896510	     16.57111723	     37.24748401	      0.00000000	      0.00000000
     10.04500000	     88.41578230	     60.66192596	     88.82720984	      0.39141682	      0.61919549	      0.82000778	     59.74501386	     -9.45840525	     -6.97667648	     25.39234976	      0.44318011	     -4.35534554	      0.00000000	      0.00000000	     55.09754059	    -15.80777201	    -14.38329320	     19.43278375	      0.33916606	     -6.48355945	      0.00000000	      0.00000000	    -22.66317083	     -9.29600060	      4.75394765	     39.29977966	     -1.06758031	      2.91290969	     10.06718932	     38.21568871	      0.00000000	      0.00000000	     38.64468154	     -2.92939107	    -10.44374211	     17.12875079	     37.27827865	      0.00000000	      0.00000000
     10.05000000	     88.38850918	     60.51000380	     88.77453908	      0.39221303	      0.61936150	      0.81951010	     59.94000646	     -9.38847598	     -6.95009353	     25.31545010	      0.44183796	     -4.42460310	      0.00000000	      0.00000000	     55.33106925	    -15.88680865	    -14.47792119	     19.49164927	      0.34019346	     -6.51733073	      0.00000000	      0.00000000	    -22.79894653	     -9.37159293	      4.82064368	     39.45436644	     -1.10898045	      2.80216734	     10.22394609	     38.41466219	      0.00000000	      0.00000000	     38.87032768	     -2.99079391	    -10.00101376	     17.14750103	     37.54140062	      0.00000000	      0.00000000
